<mxfile host="app.diagrams.net" modified="2023-06-12T09:29:26.138Z" agent="Mozilla/5.0 (Windows NT 10.0; Win64; x64) AppleWebKit/537.36 (KHTML, like Gecko) Chrome/114.0.0.0 Safari/537.36" etag="lq6g5IvROIoRHEB7z3g1" version="21.3.8" type="device">
  <diagram name="Page-1" id="hML4VPuGb0XIvmqMOA6E">
    <mxGraphModel dx="1050" dy="579" grid="1" gridSize="10" guides="1" tooltips="1" connect="1" arrows="1" fold="1" page="1" pageScale="1" pageWidth="850" pageHeight="1100" math="0" shadow="0">
      <root>
        <mxCell id="0" />
        <mxCell id="1" parent="0" />
        <mxCell id="1P9gHZw41DvnJjrTFkDb-3" style="edgeStyle=orthogonalEdgeStyle;rounded=0;orthogonalLoop=1;jettySize=auto;html=1;entryX=0.5;entryY=0;entryDx=0;entryDy=0;" parent="1" source="6fa3rH_UvGOGUlaae7Xy-1" target="1P9gHZw41DvnJjrTFkDb-1" edge="1">
          <mxGeometry relative="1" as="geometry" />
        </mxCell>
        <mxCell id="6fa3rH_UvGOGUlaae7Xy-1" value="Start" style="ellipse;whiteSpace=wrap;html=1;" parent="1" vertex="1">
          <mxGeometry x="18.75" y="20" width="120" height="60" as="geometry" />
        </mxCell>
        <mxCell id="6fa3rH_UvGOGUlaae7Xy-30" style="edgeStyle=orthogonalEdgeStyle;rounded=0;orthogonalLoop=1;jettySize=auto;html=1;entryX=0.5;entryY=0;entryDx=0;entryDy=0;" parent="1" source="6fa3rH_UvGOGUlaae7Xy-4" target="6fa3rH_UvGOGUlaae7Xy-5" edge="1">
          <mxGeometry relative="1" as="geometry" />
        </mxCell>
        <mxCell id="6fa3rH_UvGOGUlaae7Xy-4" value="Green LED turns on then turns off after its given&lt;span style=&quot;white-space: pre;&quot;&gt; &lt;/span&gt;duration" style="rounded=0;whiteSpace=wrap;html=1;" parent="1" vertex="1">
          <mxGeometry x="18.75" y="280" width="120" height="60" as="geometry" />
        </mxCell>
        <mxCell id="6fa3rH_UvGOGUlaae7Xy-33" style="edgeStyle=orthogonalEdgeStyle;rounded=0;orthogonalLoop=1;jettySize=auto;html=1;entryX=0.5;entryY=0;entryDx=0;entryDy=0;" parent="1" source="6fa3rH_UvGOGUlaae7Xy-5" target="6fa3rH_UvGOGUlaae7Xy-6" edge="1">
          <mxGeometry relative="1" as="geometry" />
        </mxCell>
        <mxCell id="6fa3rH_UvGOGUlaae7Xy-5" value="Yellow LED turns on then turns off after its given duration" style="rounded=0;whiteSpace=wrap;html=1;" parent="1" vertex="1">
          <mxGeometry x="18.75" y="370" width="120" height="60" as="geometry" />
        </mxCell>
        <mxCell id="yTmjmnK4851kwpCjc-eX-33" value="" style="edgeStyle=orthogonalEdgeStyle;rounded=0;orthogonalLoop=1;jettySize=auto;html=1;" edge="1" parent="1" source="6fa3rH_UvGOGUlaae7Xy-6" target="yTmjmnK4851kwpCjc-eX-32">
          <mxGeometry relative="1" as="geometry" />
        </mxCell>
        <mxCell id="6fa3rH_UvGOGUlaae7Xy-6" value="Red LED turns on and begins its timer. Hardware is allowed to accept input from PIR sensor" style="rounded=0;whiteSpace=wrap;html=1;" parent="1" vertex="1">
          <mxGeometry x="14.25" y="460" width="127.5" height="80" as="geometry" />
        </mxCell>
        <mxCell id="1P9gHZw41DvnJjrTFkDb-4" style="edgeStyle=orthogonalEdgeStyle;rounded=0;orthogonalLoop=1;jettySize=auto;html=1;" parent="1" source="1P9gHZw41DvnJjrTFkDb-1" target="1P9gHZw41DvnJjrTFkDb-2" edge="1">
          <mxGeometry relative="1" as="geometry" />
        </mxCell>
        <mxCell id="1P9gHZw41DvnJjrTFkDb-1" value="Turn on Beating the Red Light Hardware" style="whiteSpace=wrap;html=1;" parent="1" vertex="1">
          <mxGeometry x="18.75" y="110" width="120" height="60" as="geometry" />
        </mxCell>
        <mxCell id="1P9gHZw41DvnJjrTFkDb-5" style="edgeStyle=orthogonalEdgeStyle;rounded=0;orthogonalLoop=1;jettySize=auto;html=1;exitX=0.5;exitY=1;exitDx=0;exitDy=0;entryX=0.5;entryY=0;entryDx=0;entryDy=0;" parent="1" source="1P9gHZw41DvnJjrTFkDb-2" target="6fa3rH_UvGOGUlaae7Xy-4" edge="1">
          <mxGeometry relative="1" as="geometry" />
        </mxCell>
        <mxCell id="1P9gHZw41DvnJjrTFkDb-2" value="Hardware connects to WiFi network and subscribes to &quot;BTR&quot; MQTT topic" style="whiteSpace=wrap;html=1;" parent="1" vertex="1">
          <mxGeometry x="18.75" y="196" width="120" height="60" as="geometry" />
        </mxCell>
        <mxCell id="yTmjmnK4851kwpCjc-eX-4" value="" style="edgeStyle=orthogonalEdgeStyle;rounded=0;orthogonalLoop=1;jettySize=auto;html=1;" edge="1" parent="1" source="yTmjmnK4851kwpCjc-eX-3" target="6fa3rH_UvGOGUlaae7Xy-4">
          <mxGeometry relative="1" as="geometry" />
        </mxCell>
        <mxCell id="yTmjmnK4851kwpCjc-eX-3" value="B" style="ellipse;whiteSpace=wrap;html=1;aspect=fixed;" vertex="1" parent="1">
          <mxGeometry x="200" y="285" width="50" height="50" as="geometry" />
        </mxCell>
        <mxCell id="yTmjmnK4851kwpCjc-eX-5" value="" style="edgeStyle=orthogonalEdgeStyle;rounded=0;orthogonalLoop=1;jettySize=auto;html=1;" edge="1" parent="1" source="yTmjmnK4851kwpCjc-eX-7" target="yTmjmnK4851kwpCjc-eX-9">
          <mxGeometry relative="1" as="geometry" />
        </mxCell>
        <mxCell id="yTmjmnK4851kwpCjc-eX-6" value="" style="edgeStyle=orthogonalEdgeStyle;rounded=0;orthogonalLoop=1;jettySize=auto;html=1;" edge="1" parent="1" source="yTmjmnK4851kwpCjc-eX-7" target="yTmjmnK4851kwpCjc-eX-13">
          <mxGeometry relative="1" as="geometry" />
        </mxCell>
        <mxCell id="yTmjmnK4851kwpCjc-eX-7" value="Is movement detected?" style="rhombus;whiteSpace=wrap;html=1;rounded=0;" vertex="1" parent="1">
          <mxGeometry x="321.25" y="115" width="115" height="105" as="geometry" />
        </mxCell>
        <mxCell id="yTmjmnK4851kwpCjc-eX-8" value="" style="edgeStyle=orthogonalEdgeStyle;rounded=0;orthogonalLoop=1;jettySize=auto;html=1;" edge="1" parent="1" source="yTmjmnK4851kwpCjc-eX-9" target="yTmjmnK4851kwpCjc-eX-21">
          <mxGeometry relative="1" as="geometry" />
        </mxCell>
        <mxCell id="yTmjmnK4851kwpCjc-eX-9" value="Hardware sends a signal: &quot;1 BTR&quot; to the Recording System to save the video via MQTT" style="whiteSpace=wrap;html=1;rounded=0;" vertex="1" parent="1">
          <mxGeometry x="310" y="280" width="137.5" height="70" as="geometry" />
        </mxCell>
        <mxCell id="yTmjmnK4851kwpCjc-eX-10" value="Yes" style="text;html=1;align=center;verticalAlign=middle;resizable=0;points=[];autosize=1;strokeColor=none;fillColor=none;" vertex="1" parent="1">
          <mxGeometry x="336.25" y="220" width="40" height="30" as="geometry" />
        </mxCell>
        <mxCell id="yTmjmnK4851kwpCjc-eX-12" value="" style="edgeStyle=orthogonalEdgeStyle;rounded=0;orthogonalLoop=1;jettySize=auto;html=1;" edge="1" parent="1" source="yTmjmnK4851kwpCjc-eX-13" target="yTmjmnK4851kwpCjc-eX-17">
          <mxGeometry relative="1" as="geometry" />
        </mxCell>
        <mxCell id="yTmjmnK4851kwpCjc-eX-38" style="edgeStyle=orthogonalEdgeStyle;rounded=0;orthogonalLoop=1;jettySize=auto;html=1;" edge="1" parent="1" source="yTmjmnK4851kwpCjc-eX-13">
          <mxGeometry relative="1" as="geometry">
            <mxPoint x="380" y="90" as="targetPoint" />
            <Array as="points">
              <mxPoint x="576" y="90" />
              <mxPoint x="390" y="90" />
            </Array>
          </mxGeometry>
        </mxCell>
        <mxCell id="yTmjmnK4851kwpCjc-eX-13" value="Still within &lt;br&gt;Red LED &lt;br&gt;timer?" style="rhombus;whiteSpace=wrap;html=1;rounded=0;" vertex="1" parent="1">
          <mxGeometry x="518.75" y="115" width="115" height="105" as="geometry" />
        </mxCell>
        <mxCell id="yTmjmnK4851kwpCjc-eX-14" value="No" style="text;html=1;align=center;verticalAlign=middle;resizable=0;points=[];autosize=1;strokeColor=none;fillColor=none;" vertex="1" parent="1">
          <mxGeometry x="426.25" y="130" width="40" height="30" as="geometry" />
        </mxCell>
        <mxCell id="yTmjmnK4851kwpCjc-eX-15" value="Yes" style="text;html=1;align=center;verticalAlign=middle;resizable=0;points=[];autosize=1;strokeColor=none;fillColor=none;" vertex="1" parent="1">
          <mxGeometry x="520" y="100" width="40" height="30" as="geometry" />
        </mxCell>
        <mxCell id="yTmjmnK4851kwpCjc-eX-27" value="" style="edgeStyle=orthogonalEdgeStyle;rounded=0;orthogonalLoop=1;jettySize=auto;html=1;" edge="1" parent="1" source="yTmjmnK4851kwpCjc-eX-17" target="yTmjmnK4851kwpCjc-eX-26">
          <mxGeometry relative="1" as="geometry" />
        </mxCell>
        <mxCell id="yTmjmnK4851kwpCjc-eX-39" style="edgeStyle=orthogonalEdgeStyle;rounded=0;orthogonalLoop=1;jettySize=auto;html=1;" edge="1" parent="1" source="yTmjmnK4851kwpCjc-eX-17">
          <mxGeometry relative="1" as="geometry">
            <mxPoint x="380" y="390" as="targetPoint" />
            <Array as="points">
              <mxPoint x="576" y="390" />
            </Array>
          </mxGeometry>
        </mxCell>
        <mxCell id="yTmjmnK4851kwpCjc-eX-17" value="Turn off Red LED" style="rounded=0;whiteSpace=wrap;html=1;" vertex="1" parent="1">
          <mxGeometry x="516.25" y="280" width="120" height="60" as="geometry" />
        </mxCell>
        <mxCell id="yTmjmnK4851kwpCjc-eX-18" value="No" style="text;html=1;align=center;verticalAlign=middle;resizable=0;points=[];autosize=1;strokeColor=none;fillColor=none;" vertex="1" parent="1">
          <mxGeometry x="578.75" y="215" width="40" height="30" as="geometry" />
        </mxCell>
        <mxCell id="yTmjmnK4851kwpCjc-eX-19" style="edgeStyle=orthogonalEdgeStyle;rounded=0;orthogonalLoop=1;jettySize=auto;html=1;jumpStyle=arc;" edge="1" parent="1" source="yTmjmnK4851kwpCjc-eX-21">
          <mxGeometry relative="1" as="geometry">
            <mxPoint x="476.25" y="170" as="targetPoint" />
          </mxGeometry>
        </mxCell>
        <mxCell id="yTmjmnK4851kwpCjc-eX-20" style="edgeStyle=orthogonalEdgeStyle;rounded=0;orthogonalLoop=1;jettySize=auto;html=1;" edge="1" parent="1" source="yTmjmnK4851kwpCjc-eX-21">
          <mxGeometry relative="1" as="geometry">
            <mxPoint x="378.75" y="550" as="targetPoint" />
          </mxGeometry>
        </mxCell>
        <mxCell id="yTmjmnK4851kwpCjc-eX-21" value="Turn off hardware?" style="rhombus;whiteSpace=wrap;html=1;rounded=0;" vertex="1" parent="1">
          <mxGeometry x="320" y="410" width="117.5" height="110" as="geometry" />
        </mxCell>
        <mxCell id="yTmjmnK4851kwpCjc-eX-22" value="No" style="text;html=1;align=center;verticalAlign=middle;resizable=0;points=[];autosize=1;strokeColor=none;fillColor=none;" vertex="1" parent="1">
          <mxGeometry x="441.25" y="430" width="40" height="30" as="geometry" />
        </mxCell>
        <mxCell id="yTmjmnK4851kwpCjc-eX-23" value="End" style="ellipse;whiteSpace=wrap;html=1;" vertex="1" parent="1">
          <mxGeometry x="318.75" y="550" width="120" height="60" as="geometry" />
        </mxCell>
        <mxCell id="yTmjmnK4851kwpCjc-eX-24" value="Yes" style="text;html=1;align=center;verticalAlign=middle;resizable=0;points=[];autosize=1;strokeColor=none;fillColor=none;" vertex="1" parent="1">
          <mxGeometry x="336.25" y="510" width="40" height="30" as="geometry" />
        </mxCell>
        <mxCell id="yTmjmnK4851kwpCjc-eX-26" value="B" style="ellipse;whiteSpace=wrap;html=1;aspect=fixed;" vertex="1" parent="1">
          <mxGeometry x="660" y="285" width="50" height="50" as="geometry" />
        </mxCell>
        <mxCell id="yTmjmnK4851kwpCjc-eX-32" value="A" style="ellipse;whiteSpace=wrap;html=1;aspect=fixed;" vertex="1" parent="1">
          <mxGeometry x="52.75" y="610" width="50" height="50" as="geometry" />
        </mxCell>
        <mxCell id="yTmjmnK4851kwpCjc-eX-37" value="" style="edgeStyle=orthogonalEdgeStyle;rounded=0;orthogonalLoop=1;jettySize=auto;html=1;" edge="1" parent="1" source="yTmjmnK4851kwpCjc-eX-36" target="yTmjmnK4851kwpCjc-eX-7">
          <mxGeometry relative="1" as="geometry" />
        </mxCell>
        <mxCell id="yTmjmnK4851kwpCjc-eX-36" value="A" style="ellipse;whiteSpace=wrap;html=1;aspect=fixed;" vertex="1" parent="1">
          <mxGeometry x="353.75" y="30" width="50" height="50" as="geometry" />
        </mxCell>
      </root>
    </mxGraphModel>
  </diagram>
</mxfile>
